<svg class="animated" id="freepik_stories-achievement" xmlns="http://www.w3.org/2000/svg" viewBox="0 0 500 500" version="1.1" xmlns:xlink="http://www.w3.org/1999/xlink" xmlns:svgjs="http://svgjs.com/svgjs"><style>svg#freepik_stories-achievement:not(.animated) .animable {opacity: 0;}svg#freepik_stories-achievement.animated #freepik--background-complete--inject-16 {animation: 1s 1 forwards cubic-bezier(.36,-0.01,.5,1.38) lightSpeedLeft;animation-delay: 0s;}svg#freepik_stories-achievement.animated #freepik--Shadow--inject-16 {animation: 1s 1 forwards cubic-bezier(.36,-0.01,.5,1.38) lightSpeedLeft,1.5s Infinite  linear floating;animation-delay: 0s,1s;}svg#freepik_stories-achievement.animated #freepik--Podium--inject-16 {animation: 1s 1 forwards cubic-bezier(.36,-0.01,.5,1.38) lightSpeedLeft,1.5s Infinite  linear floating;animation-delay: 0s,1s;}svg#freepik_stories-achievement.animated #freepik--Lines--inject-16 {animation: 1s 1 forwards cubic-bezier(.36,-0.01,.5,1.38) zoomOut,1.5s Infinite  linear floating;animation-delay: 0s,1s;}svg#freepik_stories-achievement.animated #freepik--character-3--inject-16 {animation: 1s 1 forwards cubic-bezier(.36,-0.01,.5,1.38) slideUp;animation-delay: 0s;}svg#freepik_stories-achievement.animated #freepik--character-2--inject-16 {animation: 1s 1 forwards cubic-bezier(.36,-0.01,.5,1.38) slideDown,1.5s Infinite  linear floating;animation-delay: 0s,1s;}svg#freepik_stories-achievement.animated #freepik--character-1--inject-16 {animation: 1s 1 forwards cubic-bezier(.36,-0.01,.5,1.38) lightSpeedLeft;animation-delay: 0s;}            @keyframes lightSpeedLeft {              from {                transform: translate3d(-50%, 0, 0) skewX(20deg);                opacity: 0;              }              60% {                transform: skewX(-10deg);                opacity: 1;              }              80% {                transform: skewX(2deg);              }              to {                opacity: 1;                transform: translate3d(0, 0, 0);              }            }                    @keyframes floating {                0% {                    opacity: 1;                    transform: translateY(0px);                }                50% {                    transform: translateY(-10px);                }                100% {                    opacity: 1;                    transform: translateY(0px);                }            }                    @keyframes zoomOut {                0% {                    opacity: 0;                    transform: scale(1.5);                }                100% {                    opacity: 1;                    transform: scale(1);                }            }                    @keyframes slideUp {                0% {                    opacity: 0;                    transform: translateY(30px);                }                100% {                    opacity: 1;                    transform: inherit;                }            }                    @keyframes slideDown {                0% {                    opacity: 0;                    transform: translateY(-30px);                }                100% {                    opacity: 1;                    transform: translateY(0);                }            }        .animator-hidden { display: none; }</style><g id="freepik--background-complete--inject-16" class="animable" style="transform-origin: 250px 228.23px;"><rect x="416.78" y="398.49" width="33.12" height="0.25" style="fill: rgb(235, 235, 235); transform-origin: 433.34px 398.615px;" id="eljyr3f0xr37n" class="animable"></rect><rect x="322.53" y="401.21" width="8.69" height="0.25" style="fill: rgb(235, 235, 235); transform-origin: 326.875px 401.335px;" id="elgoou4xu2t2" class="animable"></rect><rect x="396.59" y="389.21" width="19.19" height="0.25" style="fill: rgb(235, 235, 235); transform-origin: 406.185px 389.335px;" id="el2983wvdfj7a" class="animable"></rect><rect x="52.46" y="390.89" width="43.19" height="0.25" style="fill: rgb(235, 235, 235); transform-origin: 74.055px 391.015px;" id="elaoid31v5gtm" class="animable"></rect><rect x="104.56" y="390.89" width="6.33" height="0.25" style="fill: rgb(235, 235, 235); transform-origin: 107.725px 391.015px;" id="elhl2zfbo70k6" class="animable"></rect><rect x="131.47" y="395.11" width="93.68" height="0.25" style="fill: rgb(235, 235, 235); transform-origin: 178.31px 395.235px;" id="elmj6y27rjrje" class="animable"></rect><path d="M238.4,337.8H45.3a5.71,5.71,0,0,1-5.71-5.71V60.66A5.71,5.71,0,0,1,45.3,55H238.4a5.71,5.71,0,0,1,5.71,5.71V332.09A5.71,5.71,0,0,1,238.4,337.8ZM45.3,55.2a5.47,5.47,0,0,0-5.46,5.46V332.09a5.47,5.47,0,0,0,5.46,5.46H238.4a5.47,5.47,0,0,0,5.46-5.46V60.66a5.47,5.47,0,0,0-5.46-5.46Z" style="fill: rgb(235, 235, 235); transform-origin: 141.85px 196.4px;" id="el5oty002r9sr" class="animable"></path><path d="M454.7,337.8H261.6a5.71,5.71,0,0,1-5.71-5.71V60.66A5.71,5.71,0,0,1,261.6,55H454.7a5.71,5.71,0,0,1,5.71,5.71V332.09A5.71,5.71,0,0,1,454.7,337.8ZM261.6,55.2a5.47,5.47,0,0,0-5.46,5.46V332.09a5.47,5.47,0,0,0,5.46,5.46H454.7a5.47,5.47,0,0,0,5.46-5.46V60.66a5.47,5.47,0,0,0-5.46-5.46Z" style="fill: rgb(235, 235, 235); transform-origin: 358.15px 196.4px;" id="elfojw04i545w" class="animable"></path><rect y="382.4" width="500" height="0.25" style="fill: rgb(235, 235, 235); transform-origin: 250px 382.525px;" id="elcarqmfmyzl" class="animable"></rect><path d="M92.75,280.19a21.41,21.41,0,0,0,9,13.37,32.31,32.31,0,0,0,15.47,5.31c5.35.5,11.1-.11,15.37-3.37s6.36-9.73,3.44-14.24c-4.13-6.38-13-6.92-20.58-6.37S99.9,277.65,92.75,280.19Z" style="fill: rgb(224, 224, 224); transform-origin: 115.068px 286.876px;" id="elb6retk95z24" class="animable"></path><path d="M160.78,240.58a21.4,21.4,0,0,1,7.84,14.08,32.18,32.18,0,0,1-2.29,16.2c-2,5-5.13,9.84-10,12.17s-11.56,1.26-14.25-3.39c-3.81-6.57-.26-14.73,3.65-21.24S155.27,245.8,160.78,240.58Z" style="fill: rgb(224, 224, 224); transform-origin: 154.644px 262.4px;" id="ely5mv6bi9iu" class="animable"></path><path d="M77.88,246a20.48,20.48,0,0,0,5.86,14.24,30.89,30.89,0,0,0,13.46,7.92c4.91,1.5,10.41,2,15-.21s7.81-7.89,6-12.66c-2.65-6.76-10.86-9-18.05-9.91S85.06,245,77.88,246Z" style="fill: rgb(224, 224, 224); transform-origin: 98.2961px 257.18px;" id="el2nbo2pkte6y" class="animable"></path><path d="M149.11,221.92a20.48,20.48,0,0,1,4.65,14.68,30.89,30.89,0,0,1-5.24,14.71c-2.81,4.3-6.69,8.23-11.66,9.49s-11.06-1-12.69-5.9c-2.31-6.88,2.57-13.84,7.48-19.18S143,225.75,149.11,221.92Z" style="fill: rgb(224, 224, 224); transform-origin: 138.701px 241.532px;" id="elxoeo0swzswc" class="animable"></path><path d="M68.32,211.68a19.51,19.51,0,0,0,4.44,14,29.34,29.34,0,0,0,12.15,8.59c4.54,1.81,9.73,2.74,14.29,1s8-6.87,6.65-11.56c-2-6.62-9.6-9.36-16.35-10.83S75.22,211.3,68.32,211.68Z" style="fill: rgb(224, 224, 224); transform-origin: 87.203px 223.845px;" id="elp390rp33l1b" class="animable"></path><path d="M137.87,194.5a19.47,19.47,0,0,1,3.24,14.31A29.37,29.37,0,0,1,135,222.36c-3,3.86-7,7.29-11.82,8.09s-10.42-1.87-11.58-6.61c-1.65-6.71,3.54-12.94,8.62-17.61A81,81,0,0,1,137.87,194.5Z" style="fill: rgb(224, 224, 224); transform-origin: 126.329px 212.545px;" id="elkapjgj0sp1b" class="animable"></path><path d="M66.4,179.35a18.49,18.49,0,0,0,2.5,13.71,28,28,0,0,0,10.43,9.57c4.06,2.25,8.84,3.75,13.35,2.65s8.41-5.51,7.66-10.1c-1.07-6.48-7.92-10-14.11-12.18A77.12,77.12,0,0,0,66.4,179.35Z" style="fill: rgb(224, 224, 224); transform-origin: 83.221px 192.499px;" id="elkf3kgduaicj" class="animable"></path><path d="M134,171.5a18.57,18.57,0,0,1,1.34,13.88A27.89,27.89,0,0,1,128,197.43c-3.3,3.28-7.48,6-12.12,6.2s-9.6-3-10.13-7.63c-.74-6.52,4.9-11.76,10.25-15.56A77.3,77.3,0,0,1,134,171.5Z" style="fill: rgb(224, 224, 224); transform-origin: 120.896px 187.569px;" id="elslsx90zhuoe" class="animable"></path><path d="M71.62,143.66A17.57,17.57,0,0,0,72,156.87a26.4,26.4,0,0,0,8.41,10.45c3.49,2.69,7.75,4.78,12.14,4.39s8.66-4,8.61-8.37c-.07-6.23-6-10.49-11.49-13.43A73.34,73.34,0,0,0,71.62,143.66Z" style="fill: rgb(224, 224, 224); transform-origin: 85.8369px 157.708px;" id="elyn2rme7dim" class="animable"></path><path d="M136.13,146a17.57,17.57,0,0,1-.72,13.2,26.48,26.48,0,0,1-8.68,10.23c-3.55,2.6-7.86,4.58-12.24,4.08s-8.56-4.18-8.4-8.58c.23-6.23,6.27-10.34,11.83-13.13A73.11,73.11,0,0,1,136.13,146Z" style="fill: rgb(224, 224, 224); transform-origin: 121.585px 159.794px;" id="elnd3rsd48ehm" class="animable"></path><path d="M82.18,111a16.58,16.58,0,0,0-1.32,12.42,25,25,0,0,0,6.54,10.86c2.92,3,6.64,5.47,10.8,5.66s8.62-2.6,9.14-6.73c.72-5.84-4.28-10.59-9-14A68.86,68.86,0,0,0,82.18,111Z" style="fill: rgb(224, 224, 224); transform-origin: 93.8112px 125.475px;" id="el72wka05bnux" class="animable"></path><path d="M142.3,121.43a16.6,16.6,0,0,1-2.37,12.27,24.92,24.92,0,0,1-9.43,8.47c-3.66,2-8,3.29-12,2.26s-7.49-5-6.77-9.12c1-5.79,7.19-8.87,12.75-10.78A69.16,69.16,0,0,1,142.3,121.43Z" style="fill: rgb(224, 224, 224); transform-origin: 127.125px 133.111px;" id="el9djlrl55ixt" class="animable"></path><path d="M120.83,95.35a1.84,1.84,0,0,0-2.48-.66,24.34,24.34,0,0,0-10.18,9.89,13.63,13.63,0,0,0-1.37,9.64c1.61,6.66,10.45,8.77,14.78,3.45,3.34-4.11,3.84-9.8,3.1-15C124.27,99.85,122.29,97.77,120.83,95.35Z" style="fill: rgb(224, 224, 224); transform-origin: 115.718px 107.565px;" id="elck5656ccrpg" class="animable"></path><path d="M213.7,319.27C190.41,317,168,306.85,148.78,290a138,138,0,0,1-39.72-60.41c-11.74-36.52-9.13-78.94,7.36-119.44l1.85.76C102,150.94,99.37,192.87,111,229c15.29,47.55,57.61,83.88,102.92,88.33Z" style="fill: rgb(224, 224, 224); transform-origin: 157.872px 214.71px;" id="elxe6j9755tk" class="animable"></path><path d="M396.85,280.19a21.39,21.39,0,0,1-9,13.37,32.38,32.38,0,0,1-15.48,5.31c-5.34.5-11.1-.11-15.37-3.37s-6.36-9.73-3.44-14.24c4.13-6.38,13-6.92,20.59-6.37S389.7,277.65,396.85,280.19Z" style="fill: rgb(224, 224, 224); transform-origin: 374.527px 286.876px;" id="elp2vu6d20uij" class="animable"></path><path d="M328.82,240.58A21.4,21.4,0,0,0,321,254.66a32.29,32.29,0,0,0,2.29,16.2c2,5,5.13,9.84,10,12.17s11.56,1.26,14.25-3.39c3.81-6.57.27-14.73-3.65-21.24S334.33,245.8,328.82,240.58Z" style="fill: rgb(224, 224, 224); transform-origin: 334.978px 262.4px;" id="ellzq28ke1v3l" class="animable"></path><path d="M411.72,246a20.48,20.48,0,0,1-5.86,14.24,30.84,30.84,0,0,1-13.46,7.92c-4.91,1.5-10.41,2-15-.21s-7.81-7.89-5.94-12.66c2.64-6.76,10.85-9,18-9.91S404.54,245,411.72,246Z" style="fill: rgb(224, 224, 224); transform-origin: 391.32px 257.18px;" id="elbeeiear8fxs" class="animable"></path><path d="M340.49,221.92a20.43,20.43,0,0,0-4.64,14.68,30.68,30.68,0,0,0,5.24,14.71c2.8,4.3,6.68,8.23,11.65,9.49s11.06-1,12.69-5.9c2.31-6.88-2.57-13.84-7.48-19.18S346.64,225.75,340.49,221.92Z" style="fill: rgb(224, 224, 224); transform-origin: 350.902px 241.532px;" id="eluhg36pe3qhe" class="animable"></path><path d="M421.28,211.68a19.51,19.51,0,0,1-4.44,14,29.34,29.34,0,0,1-12.15,8.59c-4.54,1.81-9.72,2.74-14.29,1s-8-6.87-6.64-11.56c2-6.62,9.59-9.36,16.34-10.83S414.38,211.3,421.28,211.68Z" style="fill: rgb(224, 224, 224); transform-origin: 402.4px 223.845px;" id="el7vuamz0omb5" class="animable"></path><path d="M351.74,194.5a19.43,19.43,0,0,0-3.25,14.31,29.37,29.37,0,0,0,6.14,13.55c3,3.86,7,7.29,11.83,8.09s10.41-1.87,11.58-6.61c1.64-6.71-3.54-12.94-8.63-17.61A81.16,81.16,0,0,0,351.74,194.5Z" style="fill: rgb(224, 224, 224); transform-origin: 363.289px 212.545px;" id="elv0igoophrvd" class="animable"></path><path d="M423.2,179.35a18.49,18.49,0,0,1-2.5,13.71,28,28,0,0,1-10.43,9.57c-4.06,2.25-8.83,3.75-13.35,2.65s-8.41-5.51-7.66-10.1c1.07-6.48,7.92-10,14.12-12.18A77,77,0,0,1,423.2,179.35Z" style="fill: rgb(224, 224, 224); transform-origin: 406.379px 192.499px;" id="el0v0cayqyl4ki" class="animable"></path><path d="M355.56,171.5a18.57,18.57,0,0,0-1.34,13.88,28,28,0,0,0,7.43,12.05c3.29,3.28,7.47,6,12.11,6.2s9.6-3,10.13-7.63c.74-6.52-4.89-11.76-10.25-15.56A77.3,77.3,0,0,0,355.56,171.5Z" style="fill: rgb(224, 224, 224); transform-origin: 368.704px 187.569px;" id="el8thkuyfovik" class="animable"></path><path d="M418,143.66a17.57,17.57,0,0,1-.39,13.21,26.4,26.4,0,0,1-8.41,10.45c-3.49,2.69-7.75,4.78-12.13,4.39s-8.67-4-8.62-8.37c.07-6.23,6-10.49,11.49-13.43A73.34,73.34,0,0,1,418,143.66Z" style="fill: rgb(224, 224, 224); transform-origin: 403.776px 157.708px;" id="ell2280kalhu" class="animable"></path><path d="M353.47,146a17.57,17.57,0,0,0,.72,13.2,26.48,26.48,0,0,0,8.68,10.23c3.55,2.6,7.86,4.58,12.24,4.08s8.56-4.18,8.4-8.58c-.23-6.23-6.26-10.34-11.83-13.13A73.11,73.11,0,0,0,353.47,146Z" style="fill: rgb(224, 224, 224); transform-origin: 368.015px 159.794px;" id="el1e11gewj2dn" class="animable"></path><path d="M407.42,111a16.58,16.58,0,0,1,1.32,12.42,24.87,24.87,0,0,1-6.54,10.86c-2.92,3-6.64,5.47-10.8,5.66s-8.62-2.6-9.14-6.73c-.72-5.84,4.28-10.59,9.05-14A68.79,68.79,0,0,1,407.42,111Z" style="fill: rgb(224, 224, 224); transform-origin: 395.789px 125.475px;" id="elzkko4kt2qn" class="animable"></path><path d="M347.3,121.43a16.6,16.6,0,0,0,2.37,12.27,24.92,24.92,0,0,0,9.43,8.47c3.66,2,7.95,3.29,12,2.26s7.49-5,6.77-9.12c-1-5.79-7.18-8.87-12.75-10.78A69.16,69.16,0,0,0,347.3,121.43Z" style="fill: rgb(224, 224, 224); transform-origin: 362.475px 133.111px;" id="elbfspv4r7urm" class="animable"></path><path d="M368.77,95.35a1.85,1.85,0,0,1,2.49-.66,24.37,24.37,0,0,1,10.17,9.89,13.63,13.63,0,0,1,1.37,9.64c-1.61,6.66-10.45,8.77-14.78,3.45-3.34-4.11-3.84-9.8-3.09-15C365.33,99.85,367.31,97.77,368.77,95.35Z" style="fill: rgb(224, 224, 224); transform-origin: 373.884px 107.564px;" id="elakvqq4ms2x4" class="animable"></path><path d="M275.9,319.27l-.19-2C321,312.83,363.35,276.5,378.63,229c11.6-36.08,9-78-7.3-118.07l1.86-.76c16.48,40.5,19.09,82.92,7.35,119.44A137.93,137.93,0,0,1,340.83,290C321.64,306.85,299.19,317,275.9,319.27Z" style="fill: rgb(224, 224, 224); transform-origin: 331.743px 214.72px;" id="elueqrki1e9md" class="animable"></path><path d="M215.37,297.71l-6,31.53h7.5l10.51-25.15S226.63,296.21,215.37,297.71Z" style="fill: rgb(224, 224, 224); transform-origin: 218.375px 313.38px;" id="elyxpnbg0c0q" class="animable"></path><path d="M281,297.71l6,31.53h-7.5L269,304.09S269.76,296.21,281,297.71Z" style="fill: rgb(224, 224, 224); transform-origin: 278px 313.38px;" id="elku67otq87k" class="animable"></path><g id="el7uovhlozf2k"><circle cx="248.12" cy="258.47" r="56.28" style="fill: rgb(235, 235, 235); transform-origin: 248.12px 258.47px; transform: rotate(-76.72deg);" class="animable"></circle></g><circle cx="248.84" cy="258.47" r="43.49" style="fill: rgb(255, 255, 255); transform-origin: 248.84px 258.47px;" id="ell0shgrr37q" class="animable"></circle><g id="el3f6p0dmkhpr"><circle cx="248.12" cy="258.47" r="34.94" style="fill: rgb(230, 230, 230); transform-origin: 248.12px 258.47px; transform: rotate(-76.72deg);" class="animable"></circle></g><circle cx="248.12" cy="258.47" r="27" style="fill: rgb(255, 255, 255); transform-origin: 248.12px 258.47px;" id="ela7cu4ohzbph" class="animable"></circle><circle cx="248.12" cy="258.47" r="7.8" style="fill: rgb(224, 224, 224); transform-origin: 248.12px 258.47px;" id="elin1kndqq5r" class="animable"></circle><polygon points="317.29 271.96 305.59 276.95 285.15 270.77 285.14 270.76 293.26 264.5 317.29 271.96" style="fill: rgb(230, 230, 230); transform-origin: 301.215px 270.725px;" id="elfsbfflgllg6" class="animable"></polygon><g id="elq6jz35mqiuf"><polygon points="317.29 271.96 305.59 276.95 285.15 270.77 285.14 270.76 293.26 264.5 317.29 271.96" style="opacity: 0.1; transform-origin: 301.215px 270.725px;" class="animable"></polygon></g><path d="M247.37,258.62h0a.94.94,0,0,1,1.18-.62l57.31,18.05-.54,1.8L248,259.79A1,1,0,0,1,247.37,258.62Z" style="fill: rgb(224, 224, 224); transform-origin: 276.602px 267.903px;" id="el9qgk6tehfdi" class="animable"></path><g id="ellzcgeryuao8"><g style="opacity: 0.1; transform-origin: 276.602px 267.903px;" class="animable"><path d="M247.37,258.62h0a.94.94,0,0,1,1.18-.62l57.31,18.05-.54,1.8L248,259.79A1,1,0,0,1,247.37,258.62Z" id="eltdep1ucrau" class="animable" style="transform-origin: 276.602px 267.903px;"></path></g></g><polygon points="309.83 287.46 289.65 281.32 285.15 270.77 305.59 276.95 309.83 287.46" style="fill: rgb(230, 230, 230); transform-origin: 297.49px 279.115px;" id="elail0laomxz" class="animable"></polygon><g id="el51ggziv2vm3"><g style="opacity: 0.1; transform-origin: 297.49px 279.115px;" class="animable"><polygon points="309.83 287.46 289.65 281.32 285.15 270.77 305.59 276.95 309.83 287.46" id="el67qb35mpydu" class="animable" style="transform-origin: 297.49px 279.115px;"></polygon></g></g><path d="M175.63,186.52h0a3.5,3.5,0,0,0,4.64,1l24.87-14.77a3.52,3.52,0,0,1,1.79-.49l58.65.13,28.08-18.59,2.62,3.55,6.49-13.86-14.33,1.16,1.65,3.34L264.94,165.9l-58.81.09a3.45,3.45,0,0,0-1.66.43l-27.65,15A3.5,3.5,0,0,0,175.63,186.52Z" style="fill: rgb(235, 235, 235); transform-origin: 238.878px 165.748px;" id="el81sf1axk6ji" class="animable"></path><path d="M312.94,128.35h-3a2.75,2.75,0,0,0-2.71,2.57l-.72,13.88a2.42,2.42,0,0,0,2.44,2.58h3a2.75,2.75,0,0,0,2.71-2.58l.73-13.88A2.42,2.42,0,0,0,312.94,128.35Z" style="fill: rgb(235, 235, 235); transform-origin: 310.95px 137.865px;" id="elrurexh66ya" class="animable"></path><path d="M336.71,128.35H327.9l2-4.63a3.16,3.16,0,0,0,.23-1.57l-.41-3.65a2.87,2.87,0,0,0-2.89-2.56h-3.5l-.3,5.65-5.67,7.15a4.38,4.38,0,0,0-.95,2.48l-.68,13a3,3,0,0,0,3,3.18H331a3.91,3.91,0,0,0,2.88-1.31l1.14-1.27A4,4,0,0,0,336,143l2.7-12Z" style="fill: rgb(235, 235, 235); transform-origin: 327.212px 131.67px;" id="el8wjy42z7rb7" class="animable"></path></g><g id="freepik--Shadow--inject-16" class="animable" style="transform-origin: 250px 415.69px;"><ellipse id="freepik--path--inject-16" cx="250" cy="415.69" rx="193.89" ry="11.32" style="fill: rgb(245, 245, 245); transform-origin: 250px 415.69px;" class="animable"></ellipse></g><g id="freepik--Podium--inject-16" class="animable" style="transform-origin: 250px 376.885px;"><rect x="152.73" y="371.18" width="194.54" height="53.45" style="fill: rgb(38, 50, 56); transform-origin: 250px 397.905px;" id="elbg5xlrafqu6" class="animable"></rect><g id="elb7p0bgd3rsp"><rect x="152.73" y="371.18" width="194.54" height="53.46" style="fill: rgb(255, 255, 255); opacity: 0.2; transform-origin: 250px 397.91px;" class="animable"></rect></g><rect x="205.34" y="329.13" width="84.44" height="42.01" style="fill: rgb(38, 50, 56); transform-origin: 247.56px 350.135px;" id="elijsq9ftjflp" class="animable"></rect><g id="el81dq6sj2qhm"><rect x="205.34" y="329.13" width="84.44" height="42.01" style="fill: rgb(255, 255, 255); opacity: 0.2; transform-origin: 247.56px 350.135px;" class="animable"></rect></g><path d="M245.07,341l-.88,4.44H249l-3.89,19.45h5.53L255.38,341Z" style="fill: rgb(108, 99, 255); transform-origin: 249.785px 352.945px;" id="el5jo9zqswgwl" class="animable"></path><g id="elpnqw75j4ujj"><g style="opacity: 0.2; transform-origin: 250.2px 352.945px;" class="animable"><path d="M245.91,341l-.89,4.44h4.78l-3.89,19.45h4.69L255.38,341Z" style="fill: rgb(255, 255, 255); transform-origin: 250.2px 352.945px;" id="elenxx3pccfe" class="animable"></path></g></g></g><g id="freepik--Lines--inject-16" class="animable animator-active" style="transform-origin: 253.177px 88.9756px;"><path d="M225,75.15a.46.46,0,0,1-.23-.05l-7.6-4a.5.5,0,1,1,.47-.88l7.6,4a.5.5,0,0,1,.2.68A.49.49,0,0,1,225,75.15Z" style="fill: rgb(108, 99, 255); transform-origin: 221.188px 72.6472px;" id="elym8o3hkzen" class="animable"></path><path d="M230.08,77.87a.52.52,0,0,1-.24-.05l-2.56-1.36a.5.5,0,0,1-.21-.68.51.51,0,0,1,.68-.21l2.56,1.36a.51.51,0,0,1,.21.68A.5.5,0,0,1,230.08,77.87Z" style="fill: rgb(108, 99, 255); transform-origin: 228.793px 76.6922px;" id="elzn90uad22y8" class="animable"></path><path d="M225,85.18H205.36a.5.5,0,0,1-.5-.5.5.5,0,0,1,.5-.5H225a.5.5,0,0,1,.5.5A.5.5,0,0,1,225,85.18Z" style="fill: rgb(108, 99, 255); transform-origin: 215.18px 84.68px;" id="els8b74g2c1z7" class="animable"></path><path d="M201.19,107.83a.49.49,0,0,1-.44-.26.5.5,0,0,1,.21-.68l9.72-5.16a.5.5,0,0,1,.68.21.49.49,0,0,1-.21.67l-9.72,5.16A.53.53,0,0,1,201.19,107.83Z" style="fill: rgb(108, 99, 255); transform-origin: 206.055px 104.75px;" id="el7tdbhkp0tf" class="animable"></path><path d="M213.57,101.38a.49.49,0,0,1-.44-.26.51.51,0,0,1,.19-.68l4.05-2.26a.49.49,0,0,1,.68.19.5.5,0,0,1-.19.68l-4.05,2.27A.5.5,0,0,1,213.57,101.38Z" style="fill: rgb(108, 99, 255); transform-origin: 215.592px 99.7462px;" id="el91kv23c6zn" class="animable"></path><path d="M220,97.84a.49.49,0,0,1-.44-.26.5.5,0,0,1,.21-.68l9.84-5.22a.49.49,0,0,1,.67.2.5.5,0,0,1-.2.68l-9.84,5.22A.53.53,0,0,1,220,97.84Z" style="fill: rgb(108, 99, 255); transform-origin: 224.921px 94.7295px;" id="elb169t0h3urv" class="animable"></path><path d="M276.28,77.87a.49.49,0,0,1-.44-.26.5.5,0,0,1,.21-.68l12.72-6.75a.49.49,0,0,1,.67.21.49.49,0,0,1-.2.67l-12.72,6.76A.52.52,0,0,1,276.28,77.87Z" style="fill: rgb(108, 99, 255); transform-origin: 282.641px 73.9957px;" id="elyzobanu9p0n" class="animable"></path><path d="M291.59,85.18H281.41a.5.5,0,0,1-.5-.5.5.5,0,0,1,.5-.5h10.18a.5.5,0,0,1,.5.5A.5.5,0,0,1,291.59,85.18Z" style="fill: rgb(108, 99, 255); transform-origin: 286.5px 84.68px;" id="el3fjtj7xged6" class="animable"></path><path d="M297.46,85.18H295.2a.5.5,0,0,1-.5-.5.5.5,0,0,1,.5-.5h2.26a.51.51,0,0,1,.5.5A.5.5,0,0,1,297.46,85.18Z" style="fill: rgb(108, 99, 255); transform-origin: 296.33px 84.68px;" id="el53oin8u5yi6" class="animable"></path><path d="M305.16,85.18H301a.5.5,0,0,1-.5-.5.5.5,0,0,1,.5-.5h4.14a.5.5,0,0,1,.5.5A.5.5,0,0,1,305.16,85.18Z" style="fill: rgb(108, 99, 255); transform-origin: 303.07px 84.68px;" id="elpm70wn154r" class="animable"></path><path d="M305.16,107.83a.46.46,0,0,1-.23-.06L276.27,92.56a.51.51,0,0,1-.21-.68.5.5,0,0,1,.68-.2l28.66,15.21a.5.5,0,0,1-.24.94Z" style="fill: rgb(108, 99, 255); transform-origin: 290.833px 99.7242px;" id="elj4a1w6ug0l" class="animable"></path></g><g id="freepik--character-3--inject-16" class="animable animator-hidden" style="transform-origin: 331.514px 261.93px;"><polygon points="332.3 342.79 330.26 364.02 335.57 364.83 337.88 345.21 332.3 342.79" style="fill: rgb(221, 140, 106); transform-origin: 334.07px 353.81px;" id="elkhxvlef0i3" class="animable"></polygon><path d="M335.49,364a.86.86,0,0,1,.76.89,61,61,0,0,1-.56,6.56c-.27.64-17.3-.46-17.3-.46-.6-.44-.26-.9.07-1.88,1.18-1.64,5.37-1.63,7.86-2.17,2.95-.65,2.76-2.27,3.3-3.12a.87.87,0,0,1,.82-.39Z" style="fill: rgb(108, 99, 255); transform-origin: 327.156px 367.538px;" id="el9y5nlad3dvf" class="animable"></path><path d="M359.08,245.28s6.09,10.42,1.88,20.25l-3.54,6.58a75.36,75.36,0,0,0-4,8.72l-10.71,29.54.17,7.54a54.21,54.21,0,0,1-.8,10.71l-4.57,28.61-9.15-1.44.51-46.74L343,245.28Z" style="fill: rgb(38, 50, 56); transform-origin: 345.402px 301.255px;" id="elgw4uv55i7ig" class="animable"></path><g id="elxku8rb7som"><g style="opacity: 0.2; transform-origin: 345.402px 301.255px;" class="animable"><path d="M359.08,245.28s6.09,10.42,1.88,20.25l-3.54,6.58a75.36,75.36,0,0,0-4,8.72l-10.71,29.54.17,7.54a54.21,54.21,0,0,1-.8,10.71l-4.57,28.61-9.15-1.44.51-46.74L343,245.28Z" id="eldwpgw05j40s" class="animable" style="transform-origin: 345.402px 301.255px;"></path></g></g><path d="M327.93,354c.22-.07,12.54,1.63,12.54,1.63L338.72,359,326.85,358Z" style="fill: rgb(108, 99, 255); transform-origin: 333.66px 356.499px;" id="elf80002v8ikp" class="animable"></path><path d="M325.53,206.3l-6.14,14.88-19.15,5.51L302.8,231s16.86-1,21.87-4.78c1.12-.85,8.75-17,8.75-17Z" style="fill: rgb(221, 140, 106); transform-origin: 316.83px 218.65px;" id="elzjkndm56tkh" class="animable"></path><path d="M300.24,226.69l-6.11.44s-4.05,3.87-3.3,4.72,3.65,3.68,3.65,3.68a28.69,28.69,0,0,1,4.7-2.12c1.25-.23,3.62-2.43,3.62-2.43Z" style="fill: rgb(221, 140, 106); transform-origin: 296.769px 231.11px;" id="el56thtifwenu" class="animable"></path><g id="freepik--freepik--Character--inject-282--inject-16" class="animable" style="transform-origin: 342.779px 258.446px;"><path d="M343.71,273.55s-14,24.24-14.61,27.66c-.36,2,1.14,2.92,2.34,13.64.88,7.74,1.39,23.78,1.15,25.32l-8.4,1.71s-9.09-30.78-10.62-38.11c-2.93-14,16.46-58.65,16.46-58.65l24.63.16.46,8.13c.4,7-4.4,19.31-11.41,20.14Z" style="fill: rgb(38, 50, 56); transform-origin: 334.206px 293.5px;" id="elh9baiogqs7l" class="animable"></path><polygon points="325.62 340.37 327.43 350.3 333.04 348.76 331.28 338.13 325.62 340.37" style="fill: rgb(221, 140, 106); transform-origin: 329.33px 344.215px;" id="elec9varqzwei" class="animable"></polygon><path d="M330.85,347.37a2.76,2.76,0,0,1,3.2.84,42.54,42.54,0,0,1,3.23,4.37c.21.66-14.62,12.1-14.62,12.1-.73.06-1.54-1.26-1.17-1.68.85-2.16,3.09-4.67,4.07-7a30.91,30.91,0,0,0,1.4-5.63,2.73,2.73,0,0,1,1.68-2.09Z" style="fill: rgb(108, 99, 255); transform-origin: 329.34px 355.924px;" id="el0zb2fh8nuwj" class="animable"></path><path d="M321.52,339.47c.19-.13,13.28-2.05,13.28-2.05l-.24,3.67-13.07,2.51Z" style="fill: rgb(108, 99, 255); transform-origin: 328.145px 340.51px;" id="el4lxeztgvuw4" class="animable"></path><path d="M333.13,178.56a18.53,18.53,0,0,1-1.48,3.64,1.46,1.46,0,0,0,1.46.47Z" style="fill: rgb(223, 87, 83); transform-origin: 332.39px 180.636px;" id="el5f98t9kl2r4" class="animable"></path><path d="M333.05,176.7c-.38,0-.68.46-.69,1s.3,1,.68,1,.69-.46.69-1S333.43,176.7,333.05,176.7Z" style="fill: rgb(38, 50, 56); transform-origin: 333.045px 177.7px;" id="ellumorg99vss" class="animable"></path><path d="M350.9,185.35c-.85,4.24-1.72,12,1.24,14.87,0,0-1.19,4.3-9.08,4.26-8.68,0-4.12-4.33-4.12-4.33,4.74-1.11,4.64-4.62,3.83-7.93Z" style="fill: rgb(229, 138, 123); transform-origin: 344.941px 194.915px;" id="elicl8ni2igro" class="animable"></path><path d="M353.27,175.69c-.48,7.09-.53,10.1-4.13,13.72-5.42,5.45-14,3.32-15.67-3.73-1.49-6.39-1.37-15.55,5.61-18.33,4.95-2,11.49-1,13.5,4A9.81,9.81,0,0,1,353.27,175.69Z" style="fill: rgb(221, 140, 106); transform-origin: 342.999px 179.435px;" id="eld55d2h2t8o" class="animable"></path><path d="M354.65,200.71h0a1.62,1.62,0,0,0-1.33-1.83c-3.2-.54-10.49-1.66-14.17-1.17-2.73.37-3.45,1.95-3.58,3.26A1.6,1.6,0,0,0,337,202.7h.26l15.86-.64A1.63,1.63,0,0,0,354.65,200.71Z" style="fill: rgb(108, 99, 255); transform-origin: 345.115px 200.144px;" id="elrrob9vu2lub" class="animable"></path><g id="elqdsbk36eqj"><path d="M354.65,200.71h0a1.62,1.62,0,0,0-1.33-1.83c-3.2-.54-10.49-1.66-14.17-1.17-2.73.37-3.45,1.95-3.58,3.26A1.6,1.6,0,0,0,337,202.7h.26l15.86-.64A1.63,1.63,0,0,0,354.65,200.71Z" style="opacity: 0.6; isolation: isolate; transform-origin: 345.115px 200.144px;" class="animable"></path></g><path d="M360.36,196.45,365.54,184l-7.48-21.22,5-.59s9.18,17.49,9.23,23.77c0,1.41-8.15,17.32-8.15,17.32Z" style="fill: rgb(221, 140, 106); transform-origin: 365.175px 182.735px;" id="elpwspg9dhdjd" class="animable"></path><path d="M353.09,200.58c0-3.05,10.19-12.14,10.19-12.14h0a23.27,23.27,0,0,1,7.15,9.46l.22.55s-5,9-8.9,8.55C357.66,206.55,353.09,204.4,353.09,200.58Z" style="fill: rgb(108, 99, 255); transform-origin: 361.87px 197.728px;" id="elttbxhjxvht" class="animable"></path><g id="eljnev0yjet6m"><path d="M353.09,200.58c0-3.05,10.19-12.14,10.19-12.14h0a23.27,23.27,0,0,1,7.15,9.46l.22.55s-5,9-8.9,8.55C357.66,206.55,353.09,204.4,353.09,200.58Z" style="opacity: 0.1; isolation: isolate; transform-origin: 361.87px 197.728px;" class="animable"></path></g><path d="M328.34,198.06s.84,11.6,1.64,47l29.06.16c-.37-10.23.75-19.87,4.79-37.88a8.84,8.84,0,0,0-7.77-10.76c-.8-.08-1.61-.14-2.41-.19a90.88,90.88,0,0,0-13.2-.07C334.77,196.79,328.34,198.06,328.34,198.06Z" style="fill: rgb(108, 99, 255); transform-origin: 346.195px 220.667px;" id="elg73drcpym45" class="animable"></path><path d="M322.31,206c-1.51,6.77-3.35,9.58-3.35,9.58l10.73,6.3s7.6-18.56,6.26-22.28c-.82-2.27-3.27-2.36-5.09-1.74,0,0-.05,0-.07,0C327.53,196.55,323.63,200.15,322.31,206Z" style="fill: rgb(108, 99, 255); transform-origin: 327.534px 209.705px;" id="el8g29t7gltwc" class="animable"></path><path d="M336,168.85A16.8,16.8,0,0,0,338.27,181c1.44,2.26,2.62,4.68,4.16,6.74a6,6,0,0,0,8.73,1,14,14,0,0,0,1.8-19.41,9.88,9.88,0,0,0-6.41-3.78,15.33,15.33,0,0,0-6.34,1.18C338.69,167.31,337.52,168.33,336,168.85Z" style="fill: rgb(38, 50, 56); transform-origin: 345.872px 177.862px;" id="el7n7rsadwsl5" class="animable"></path><path d="M339.92,179.59a7.09,7.09,0,0,1-1.13,3.79c-1,1.46-2.11.9-2.39-.67-.25-1.37,0-3.81,1.2-4.75S339.92,178,339.92,179.59Z" style="fill: rgb(221, 140, 106); transform-origin: 338.116px 180.91px;" id="eluc3jivwgjw" class="animable"></path><g id="eloi72ldldfwd"><path d="M329.16,221.38l4.57-13-2,14.17A7.54,7.54,0,0,1,329.16,221.38Z" style="opacity: 0.2; isolation: isolate; transform-origin: 331.445px 215.465px;" class="animable"></path></g><path d="M358.06,162.82l-3.38-5.11s.6-5.58,1.73-5.5,5.14.65,5.14.65a29.43,29.43,0,0,0,1.19,5c.58,1.14.28,4.36.28,4.36Z" style="fill: rgb(221, 140, 106); transform-origin: 358.889px 157.515px;" id="eljwij52ons9" class="animable"></path><path d="M330.17,170.08a2.63,2.63,0,0,0,1.36,3.28,4.33,4.33,0,0,0,5.13,3.92c-1.13-.43-1.31-2-.79-3.13.95-2,4.22-4.28,1.48-6.28C335.27,166.34,331,167.7,330.17,170.08Z" style="fill: rgb(38, 50, 56); transform-origin: 334.217px 172.29px;" id="elme2s0hi8r6j" class="animable"></path></g><path d="M332,176.06a2.23,2.23,0,0,1,2.05.2h0l.08.05a.29.29,0,0,0,.28-.5,2.83,2.83,0,0,0-2.57-.32.32.32,0,0,0-.15.13.29.29,0,0,0,.11.4A.28.28,0,0,0,332,176.06Z" style="fill: rgb(38, 50, 56); transform-origin: 333.086px 175.823px;" id="eltk8eyylqjd" class="animable"></path><path d="M352.6,214.61c0-.06,1.53-2.75,1.31-4.41a4.39,4.39,0,0,0,1.54-3,4.7,4.7,0,0,0-.95-3.39,5.94,5.94,0,0,0-1-7.46c1.79-2.12,1.51-6.13-.92-7.45a3.87,3.87,0,0,0,.88-5.21c-.39,0-.38-.47-.73-.31a10.63,10.63,0,0,0-3.78,3.43,6.92,6.92,0,0,0-4.81-1,3.28,3.28,0,0,0,2.45,5.43c-.5,2.76,1,5.79,3.81,6.18-1.26,3.07-.34,5.25,2.73,6.48-1.34,1.72-1.92,4.46-.74,6.3a4.93,4.93,0,0,0-1.64,3.52C350.54,215.8,352.6,214.61,352.6,214.61Z" style="fill: rgb(38, 50, 56); transform-origin: 349.408px 199.148px;" id="el7qauhx4ed4n" class="animable"></path><path d="M351.44,213.7a2.87,2.87,0,0,0-2.25,5.22,1.32,1.32,0,0,1,.24-2.08,1.57,1.57,0,0,0-.36,1.66,12.16,12.16,0,0,0,.92,1.25,1.38,1.38,0,0,1,.17,1.45,6.44,6.44,0,0,0,3.5-3.9,3.43,3.43,0,0,0,0-2.52A2,2,0,0,0,351.44,213.7Z" style="fill: rgb(38, 50, 56); transform-origin: 350.856px 217.399px;" id="elorlxcu5qzz" class="animable"></path><path d="M351.44,212.35l-2.92,1.18a3.81,3.81,0,0,1-1.43.14,5.82,5.82,0,0,1-1.29-4.17,6.94,6.94,0,0,1,2.23-4.21,15.46,15.46,0,0,1,2.92,2.52,15.16,15.16,0,0,0,1.52,1.37,1.67,1.67,0,0,1,.18,2,3.76,3.76,0,0,1-1.53,1.35C351.15,212.34,351.41,212.5,351.44,212.35Z" style="fill: rgb(108, 99, 255); transform-origin: 349.34px 209.488px;" id="elgwnm371uoca" class="animable"></path><path d="M353.53,213.23l2.53,1.88a3.63,3.63,0,0,0,1.34.5,5.82,5.82,0,0,0,2.31-3.7,6.94,6.94,0,0,0-1.08-4.64,15.68,15.68,0,0,0-3.47,1.69,17.3,17.3,0,0,1-1.81.94,1.68,1.68,0,0,0-.69,1.86,3.83,3.83,0,0,0,1.14,1.7C353.82,213.3,353.52,213.39,353.53,213.23Z" style="fill: rgb(108, 99, 255); transform-origin: 356.179px 211.44px;" id="elxr9h88g4o4d" class="animable"></path><g id="elzb2b8nuubqf"><path d="M351.44,212.35l-2.92,1.18a3.81,3.81,0,0,1-1.43.14,5.82,5.82,0,0,1-1.29-4.17,6.94,6.94,0,0,1,2.23-4.21,15.46,15.46,0,0,1,2.92,2.52,15.16,15.16,0,0,0,1.52,1.37,1.67,1.67,0,0,1,.18,2,3.76,3.76,0,0,1-1.53,1.35C351.15,212.34,351.41,212.5,351.44,212.35Z" style="opacity: 0.4; isolation: isolate; transform-origin: 349.34px 209.488px;" class="animable"></path></g><g id="ells45h73ymv"><path d="M353.53,213.23l2.53,1.88a3.63,3.63,0,0,0,1.34.5,5.82,5.82,0,0,0,2.31-3.7,6.94,6.94,0,0,0-1.08-4.64,15.68,15.68,0,0,0-3.47,1.69,17.3,17.3,0,0,1-1.81.94,1.68,1.68,0,0,0-.69,1.86,3.83,3.83,0,0,0,1.14,1.7C353.82,213.3,353.52,213.39,353.53,213.23Z" style="opacity: 0.4; isolation: isolate; transform-origin: 356.179px 211.44px;" class="animable"></path></g></g><g id="freepik--character-2--inject-16" class="animable" style="transform-origin: 249.366px 201.987px;"><path d="M229.39,328.73a8.26,8.26,0,0,0-2.2-2.05h0s-2.08-3.47-1.28-12.13l-3.41-1.88a3.22,3.22,0,0,0-3.65.45,1.57,1.57,0,0,0-.35.42,23.85,23.85,0,0,0-1.07,2.56,79.88,79.88,0,0,0-2.38,9.12l.65.19,1.72-5.67c.56-1.93,1.51.75,1.4,2.95s.23,4.68,4.47,5.87C228.22,329.93,230.35,330.27,229.39,328.73Z" style="fill: rgb(46, 53, 58); transform-origin: 222.332px 321.022px;" id="elu2v7q76yo5" class="animable"></path><polygon points="225.58 315.44 221.12 314.01 220.84 307.5 221.66 299.98 229.13 300.81 227.01 309.57 225.58 315.44" style="fill: rgb(255, 195, 189); transform-origin: 224.985px 307.71px;" id="ell5815jk0iu" class="animable"></polygon><path d="M226.22,311.41s-.2,4,0,8.53a17.86,17.86,0,0,0,1.2,6.74s-3.35-.25-4.18-2.76-.84-10.33-4.19-10.77a8.47,8.47,0,0,1,1.33-1.28C221.13,311.27,226.22,311.41,226.22,311.41Z" style="fill: rgb(255, 195, 189); transform-origin: 223.235px 319.038px;" id="ell92ca7au4u" class="animable"></path><path d="M260.59,93.06l2.89,2.27L267,93.87l-3.2-2.53S261.85,90.19,260.59,93.06Z" style="fill: rgb(255, 195, 189); transform-origin: 263.795px 93.2212px;" id="elcajaj8uv844" class="animable"></path><path d="M248.06,93.4a6.41,6.41,0,0,0,1.23-1.26,2.34,2.34,0,0,0-.3-3,13.75,13.75,0,0,0-2.92-2.39c-.87-1.2-.89-2.67-1.89-3.75s-2.73-.72-4,.26c0,0,.43,3.67,1.44,5.17.61.91,1.08,2.16,2.12,2.51C243.78,90.89,247.08,92.87,248.06,93.4Z" style="fill: rgb(255, 195, 189); transform-origin: 244.94px 87.8702px;" id="elewtd0fa4cfp" class="animable"></path><path d="M244.74,91.34l-3.58,3L245,96.48l4.25-4.21S248.33,89.45,244.74,91.34Z" style="fill: rgb(255, 195, 189); transform-origin: 245.205px 93.584px;" id="eldtszj3d47uk" class="animable"></path><path d="M261.09,93.47a6.68,6.68,0,0,1-1.26-1.23,2.35,2.35,0,0,1,.23-3.06,13.67,13.67,0,0,1,2.86-2.46c.83-1.22.82-2.69,1.8-3.8s2.71-.78,4,.17c0,0-.34,3.68-1.31,5.2-.59.93-1,2.19-2.06,2.56C265.31,90.85,262.06,92.91,261.09,93.47Z" style="fill: rgb(255, 195, 189); transform-origin: 264.045px 87.8456px;" id="eltfayduznbyd" class="animable"></path><path d="M262,137.62l8.09,8.54c2.79-3.41,12.15-18.25,13.53-31.72.45-4.41-1.68-5.32-1.68-5.32L265.83,92.39c-3.74-1.1-3.53,2.36-3.53,2.36s12.55,19.17,12.14,20.26C274.2,115.63,262,137.62,262,137.62Z" style="fill: rgb(108, 99, 255); transform-origin: 272.841px 119.167px;" id="el7komw8sudxa" class="animable"></path><g id="el50fqpexxft9"><path d="M262,137.62l8.09,8.54c2.79-3.41,12.15-18.25,13.53-31.72.45-4.41-1.68-5.32-1.68-5.32L265.83,92.39c-3.74-1.1-3.53,2.36-3.53,2.36s12.55,19.17,12.14,20.26C274.2,115.63,262,137.62,262,137.62Z" style="opacity: 0.1; transform-origin: 272.841px 119.167px;" class="animable"></path></g><g id="el0uf72xyzxc0p"><path d="M262,137.62l8.09,8.54c2.79-3.41,12.15-18.25,13.53-31.72.45-4.41-1.68-5.32-1.68-5.32L265.83,92.39c-3.74-1.1-3.53,2.36-3.53,2.36s12.55,19.17,12.14,20.26C274.2,115.63,262,137.62,262,137.62Z" style="fill: rgb(255, 255, 255); opacity: 0.1; transform-origin: 272.841px 119.167px;" class="animable"></path></g><path d="M243.66,136.52l-.18.82c-.7,3.23-5,7.95-8.16,7.06h0c-2.53-3.61-11.55-18.39-11.94-31.93-.13-4.44,2.07-5.18,2.07-5.18l18-15.46c3.8-.49,3.8,2.76,3.8,2.76s-15,18-14.71,19.12C232.71,114.35,243.66,136.52,243.66,136.52Z" style="fill: rgb(108, 99, 255); transform-origin: 235.312px 118.145px;" id="eladegwacshy" class="animable"></path><g id="elxws2zxhcnb"><g style="opacity: 0.2; transform-origin: 235.312px 118.145px;" class="animable"><path d="M243.66,136.52l-.18.82c-.7,3.23-5,7.95-8.16,7.06h0c-2.53-3.61-11.55-18.39-11.94-31.93-.13-4.44,2.07-5.18,2.07-5.18l18-15.46c3.8-.49,3.8,2.76,3.8,2.76s-15,18-14.71,19.12C232.71,114.35,243.66,136.52,243.66,136.52Z" style="fill: rgb(255, 255, 255); transform-origin: 235.312px 118.145px;" id="elh4n0pkiqie" class="animable"></path></g></g><path d="M232.64,140.13c1.89,3.25,3.92,7.27,5.87,10.85a2.45,2.45,0,0,0,4,.42c3.39-3.88,5.13-9.7,3.61-14.42-2-.88-4.21-1.76-6.17-2.64C237.12,135.73,234.27,137.44,232.64,140.13Z" style="fill: rgb(108, 99, 255); transform-origin: 239.657px 143.294px;" id="elsgg5486igl8" class="animable"></path><g id="el5oiy30ivre"><path d="M232.64,140.13c1.89,3.25,3.92,7.27,5.87,10.85a2.45,2.45,0,0,0,4,.42c3.39-3.88,5.13-9.7,3.61-14.42-2-.88-4.21-1.76-6.17-2.64C237.12,135.73,234.27,137.44,232.64,140.13Z" style="fill: rgb(255, 255, 255); opacity: 0.2; transform-origin: 239.657px 143.294px;" class="animable"></path></g><path d="M272.14,156.28l-1,3.32c-.65,3.44-1.53,6.7-1.91,9.77a123.35,123.35,0,0,0,1,18.73s.8,14.32.77,15.29l-38-.16c1.33-17.4,10.08-32.47,10.08-34.89,0-3.07-.2-1.56-2.82-10a0,0,0,0,0,0,0s0-.05,0-.1-.05-.18-.09-.27a3,3,0,0,0-.11-.37c0-.08,0-.16-.07-.25l-.29-1c-.67-2.28-1.81-6.38-2.92-11.34-.72-3.26,1-7.42,4.25-8.15l.55-.09c1.7-.22,3.58-.43,5.5-.52a90.91,90.91,0,0,1,12.89,0,58.31,58.31,0,0,1,6.27.77c.66.1,1.57,1,2.52,2.2A20.16,20.16,0,0,1,272.14,156.28Z" style="fill: rgb(108, 99, 255); transform-origin: 252.884px 169.706px;" id="elma1lv9omu5j" class="animable"></path><g id="elruf0jrkodva"><g style="opacity: 0.2; transform-origin: 252.884px 169.706px;" class="animable"><path d="M272.14,156.28l-1,3.32c-.65,3.44-1.53,6.7-1.91,9.77a123.35,123.35,0,0,0,1,18.73s.8,14.32.77,15.29l-38-.16c1.33-17.4,10.08-32.47,10.08-34.89,0-3.07-.2-1.56-2.82-10a0,0,0,0,0,0,0s0-.05,0-.1-.05-.18-.09-.27a3,3,0,0,0-.11-.37c0-.08,0-.16-.07-.25l-.29-1c-.67-2.28-1.81-6.38-2.92-11.34-.72-3.26,1-7.42,4.25-8.15l.55-.09c1.7-.22,3.58-.43,5.5-.52a90.91,90.91,0,0,1,12.89,0,58.31,58.31,0,0,1,6.27.77c.66.1,1.57,1,2.52,2.2A20.16,20.16,0,0,1,272.14,156.28Z" style="fill: rgb(255, 255, 255); transform-origin: 252.884px 169.706px;" id="elocvjcgsdnco" class="animable"></path></g></g><path d="M254.7,132.51c.18,0-10.35-.38-11.57,1.2a3,3,0,0,0-.69,1.89,1.68,1.68,0,0,0,1.1,1.57c-1.37.82-3.23,1.67-3,3.25a2.83,2.83,0,0,0,2.39,2.18,8.31,8.31,0,0,0,3.42-.36,2.44,2.44,0,0,0,.93,2.72,5.26,5.26,0,0,0,2.71.69,28,28,0,0,0,5.25-.23c.54-1.44-.15-3.18-.91-4.52C252.54,137.73,256.85,135.44,254.7,132.51Z" style="fill: rgb(108, 99, 255); transform-origin: 247.977px 139.078px;" id="elyckcnas6f5c" class="animable"></path><path d="M254.7,132.51c.18,0-10.35-.38-11.57,1.2a3,3,0,0,0-.69,1.89,1.68,1.68,0,0,0,1.1,1.57c-1.37.82-3.23,1.67-3,3.25a2.83,2.83,0,0,0,2.39,2.18,8.31,8.31,0,0,0,3.42-.36,2.44,2.44,0,0,0,.93,2.72,5.26,5.26,0,0,0,2.71.69,28,28,0,0,0,5.25-.23c.54-1.44,2-3.06,1.2-4.41C254.65,137.84,256.85,135.44,254.7,132.51Z" style="fill: rgb(255, 255, 255); transform-origin: 248.598px 139.078px;" id="el56otscu68mc" class="animable"></path><path d="M255.88,132.56c-.18,0,9.88-.43,11.1,1.15a2.94,2.94,0,0,1,.7,1.89,1.71,1.71,0,0,1-1.1,1.57c1.37.82,3.22,1.67,3,3.25a2.84,2.84,0,0,1-2.4,2.18,8.35,8.35,0,0,1-3.42-.36,2.42,2.42,0,0,1-.92,2.72,5.27,5.27,0,0,1-2.72.69,27.8,27.8,0,0,1-5.24-.23c-.54-1.44.15-3.18.9-4.52C257.57,137.73,253.73,135.49,255.88,132.56Z" style="fill: rgb(255, 255, 255); transform-origin: 262.143px 139.096px;" id="el8s9xanb6q7" class="animable"></path><polygon points="254.05 144.51 258.1 149.87 260.6 144.51 254.05 144.51" style="fill: rgb(255, 255, 255); transform-origin: 257.325px 147.19px;" id="elqvglp0g7my9" class="animable"></polygon><path d="M242,117.05a12.45,12.45,0,0,0-2.72,2.39,4.24,4.24,0,0,0-.94,3.4,2.6,2.6,0,0,0,2.58,2.1c-.88,1.18-2.48,2.79-2.78,4.23a3.49,3.49,0,0,0,1.47,3.83c4.12-.42,8.27-.66,12.38-1.08.06-2.12.33-4,.38-6.1C249.71,122.3,245.69,119.55,242,117.05Z" style="fill: rgb(38, 50, 56); transform-origin: 245.196px 125.025px;" id="elm7iwie12rmh" class="animable"></path><path d="M264.56,117.05a12.69,12.69,0,0,1,2.72,2.39,4.27,4.27,0,0,1,.94,3.4,2.6,2.6,0,0,1-2.58,2.1c.88,1.18,2.48,2.79,2.78,4.23a3.48,3.48,0,0,1-1.48,3.83c-4.11-.42-8.26-.66-12.37-1.08-.06-2.12-.33-4-.39-6.1C256.88,122.3,260.9,119.55,264.56,117.05Z" style="fill: rgb(38, 50, 56); transform-origin: 261.359px 125.025px;" id="elpun4v2t707c" class="animable"></path><path d="M251,122.12c.51,4,.83,11.23-2.09,13.68,2.18,3,5,4.74,8.16,8.06,3.44-5.22,4.07-7.28,4.07-7.28-4.32-1.33-4-4.57-3-7.58Z" style="fill: rgb(255, 195, 189); transform-origin: 255.025px 132.99px;" id="eljahhvl0zhn" class="animable"></path><g id="els330bobd0xf"><path d="M251.78,122.87a16.24,16.24,0,0,0,1.2,6.85c.62,1.5,2.54,2.27,4.52,2.55a11,11,0,0,1,.59-3.27Z" style="opacity: 0.2; transform-origin: 254.928px 127.57px;" class="animable"></path></g><path d="M245.06,116.8c1.5,6.43,1.95,9.17,5.81,12,5.76,4.18,13.32,1,13.8-5.77.42-6-2.1-15.54-8.85-17.06a9,9,0,0,0-10.76,10.87Z" style="fill: rgb(255, 195, 189); transform-origin: 254.763px 118.211px;" id="el92dpw496jok" class="animable"></path><path d="M250.06,104.24c4.47-3.59,9-1.72,11.37-.28A9.88,9.88,0,0,1,266,110.6c.19,1.07-.26,3.49-2.33,4a10.62,10.62,0,0,0-2.13-3.41c-1.44-1.31-4.22-3-5.38-2.73-1.24,2.39-3.22,6.83-6.71,7.66-2.63.62.06,14-5.29,8.44-6.4-8.76-3.06-13-1.16-16.49S250.06,104.24,250.06,104.24Z" style="fill: rgb(38, 50, 56); transform-origin: 253.228px 114.039px;" id="elfmwhlbvmuve" class="animable"></path><path d="M260.52,123.32a.16.16,0,0,0,.07-.17.16.16,0,0,0-.18-.12h0a4.22,4.22,0,0,1-3.71-.94.17.17,0,0,0-.23,0,.16.16,0,0,0,0,.22,4.45,4.45,0,0,0,4,1Z" style="fill: rgb(38, 50, 56); transform-origin: 258.51px 122.74px;" id="eltbco1c8ip7" class="animable"></path><path d="M261.27,120.39a2.33,2.33,0,0,0,1.76-.81,15.14,15.14,0,0,1-2.83-2.88Z" style="fill: rgb(237, 137, 62); transform-origin: 261.615px 118.545px;" id="eljiqcg0kr4" class="animable"></path><path d="M244,122.21a4.81,4.81,0,0,0,2.35,2.86c1.5.76,2.59-.49,2.46-2.08-.12-1.43-1-3.56-2.68-3.68a2.16,2.16,0,0,0-2.26,2.07A2.36,2.36,0,0,0,244,122.21Z" style="fill: rgb(255, 195, 189); transform-origin: 246.345px 122.303px;" id="elo5to8h3ezm" class="animable"></path><path d="M240.34,156.42c.1.37.2.69.28,1-.1-.3-.19-.62-.29-1Z" style="fill: rgb(108, 99, 255); transform-origin: 240.475px 156.92px;" id="elo5ytkba60ea" class="animable"></path><polygon points="273.44 318.46 268.41 318.25 266.52 310.23 265.16 302.79 272.56 301.45 273.03 310.45 273.44 318.46" style="fill: rgb(255, 195, 189); transform-origin: 269.3px 309.955px;" id="ele6e5qgsuy99" class="animable"></polygon><path d="M281,328.08a8.28,8.28,0,0,0-2.71-1.34h0s-3-2.73-4.68-11.26l-3.8-.83a3.23,3.23,0,0,0-3.37,1.47,1.64,1.64,0,0,0-.22.51,23,23,0,0,0-.29,2.76,78,78,0,0,0,.32,9.42h.68l0-5.93c0-2,1.66.29,2.18,2.43s1.55,4.41,6,4.34C280.2,329.56,282.33,329.28,281,328.08Z" style="fill: rgb(46, 53, 58); transform-origin: 273.645px 322.12px;" id="elk0lnrwenc" class="animable"></path><path d="M272.8,312.44s.95,3.89,2.4,8.19a18,18,0,0,0,3.07,6.11s-3.27.71-4.79-1.45-3.75-9.66-7.08-9.13a8.11,8.11,0,0,1,.9-1.6C267.88,313.76,272.8,312.44,272.8,312.44Z" style="fill: rgb(255, 195, 189); transform-origin: 272.335px 319.646px;" id="elek19b1t93bh" class="animable"></path><path d="M274.05,253.82,272.93,308l-6.66.69A227.83,227.83,0,0,1,260,269.91c-.27-4.48.8-9.69.31-13.24-.44-3.1-1.67-5-3.4-12.06-2.09-8.49-4.27-19.88-3.71-28.75,0,0-9.1-9.5-6.78-22.45l8.11-2.15,11.92-3.18,3.75,0,.08,1.58Z" style="fill: rgb(38, 50, 56); transform-origin: 260.046px 248.385px;" id="elulo56ilh4cm" class="animable"></path><g id="elq3log610vkp"><g style="opacity: 0.1; transform-origin: 260.046px 248.385px;" class="animable"><path d="M274.05,253.82,272.93,308l-6.66.69A227.83,227.83,0,0,1,260,269.91c-.27-4.48.8-9.69.31-13.24-.44-3.1-1.67-5-3.4-12.06-2.09-8.49-4.27-19.88-3.71-28.75,0,0-9.1-9.5-6.78-22.45l8.11-2.15,11.92-3.18,3.35,0,.08,1.58Z" id="elyss456f2aur" class="animable" style="transform-origin: 260.046px 248.385px;"></path></g></g><path d="M259.47,190.53l-15.31,65.06-16.54,51.6L221,306A227.36,227.36,0,0,1,226.11,267c1-4.38,3.53-9.07,4.07-12.61.47-3.1-.16-5.31.19-12.53.42-8.74,1.58-20.28,4.65-28.61,0,0-6-11.71-.09-23.45Z" style="fill: rgb(38, 50, 56); transform-origin: 240.235px 248.495px;" id="elk33z5325sjr" class="animable"></path><polygon points="270.39 191.53 259.02 192.42 234.93 189.81 235.77 187.95 266.46 188.08 270.2 188.1 270.24 188.1 270.29 189.68 270.39 191.53" style="fill: rgb(38, 50, 56); transform-origin: 252.66px 190.185px;" id="eldnp9jxj2gs" class="animable"></polygon><path d="M258.8,103.59H250a4.8,4.8,0,0,0,1.88-2.41c.5-1.47.88-1.61,1.11-3.28a28.25,28.25,0,0,0,.29-3.9,19.45,19.45,0,0,0-.71-5.23h3.63a20.36,20.36,0,0,0-.72,5.22,20.74,20.74,0,0,0,1.41,7.19A4.86,4.86,0,0,0,258.8,103.59Z" style="fill: rgb(108, 99, 255); transform-origin: 254.4px 96.18px;" id="el08lmcvsmqcd7" class="animable"></path><g id="elafa8spind"><path d="M256.23,88.77c-.15.86-.32,1.64-.5,2.38A22.71,22.71,0,0,1,253,97.9a28.25,28.25,0,0,0,.29-3.9,19.45,19.45,0,0,0-.71-5.23Z" style="opacity: 0.2; transform-origin: 254.405px 93.335px;" class="animable"></path></g><path d="M248.25,78.58,247.1,80l-.58-.68a4.57,4.57,0,0,0-3-1.33l-.26,0a1.87,1.87,0,0,0-1.23.74,2.9,2.9,0,0,0-.5,1,2.82,2.82,0,0,0-.07.31,4.73,4.73,0,0,0,.25,2.36,3.33,3.33,0,0,0,2.85,2.47h.82v1.94h-.82c-1.83,0-3.53-1.42-4.35-3.62,0-.15-.1-.3-.14-.44a6,6,0,0,1,.76-5.38,3.39,3.39,0,0,1,2.64-1.4,5,5,0,0,1,2.07.43,6.45,6.45,0,0,1,2.1,1.46Z" style="fill: rgb(108, 99, 255); transform-origin: 243.999px 81.3899px;" id="eloeioc2ydrxq" class="animable"></path><g id="elngaxldkvwce"><path d="M245.56,76.44a.73.73,0,0,1-.17.27,2.5,2.5,0,0,1-.84.5,6.15,6.15,0,0,0-1.27.77,1.87,1.87,0,0,0-1.23.74,3,3,0,0,0-.57,1.36,7.18,7.18,0,0,0-.67,1.46,2.4,2.4,0,0,1-.72,1.25,6.28,6.28,0,0,1,.25-4.56,4.33,4.33,0,0,1,.51-.82,3.39,3.39,0,0,1,2.64-1.4h.28A5.11,5.11,0,0,1,245.56,76.44Z" style="fill: rgb(255, 255, 255); opacity: 0.2; transform-origin: 242.668px 79.4px;" class="animable"></path></g><g id="elg2l0ts0o7i7"><path d="M243.77,76a.13.13,0,0,1,0,.06,2.13,2.13,0,0,1-1,1.34,5.1,5.1,0,0,1-2,.79,2.43,2.43,0,0,1-.38,0,4.33,4.33,0,0,1,.51-.82,3.39,3.39,0,0,1,2.64-1.4Z" style="fill: rgb(255, 255, 255); opacity: 0.3; transform-origin: 242.082px 77.0837px;" class="animable"></path></g><g id="elqmtlf4lfjo"><path d="M244.74,84.91a1,1,0,0,1-1.24.32,3.55,3.55,0,0,1-2.19-2.4,4.75,4.75,0,0,1,.24-3.06,2.82,2.82,0,0,0-.07.31,4.73,4.73,0,0,0,.25,2.36,3.33,3.33,0,0,0,2.85,2.47Z" style="opacity: 0.2; transform-origin: 242.951px 82.5481px;" class="animable"></path></g><path d="M260.79,78.58,261.94,80l.58-.68a4.57,4.57,0,0,1,3-1.33l.26,0a1.87,1.87,0,0,1,1.23.74,2.9,2.9,0,0,1,.5,1,1.55,1.55,0,0,1,.07.31,4.73,4.73,0,0,1-.25,2.36,3.33,3.33,0,0,1-2.85,2.47h-.82v1.94h.82c1.83,0,3.53-1.42,4.35-3.62l.15-.44a6,6,0,0,0-.77-5.38,3.39,3.39,0,0,0-2.64-1.4,5,5,0,0,0-2.07.43,6.45,6.45,0,0,0-2.1,1.46Z" style="fill: rgb(108, 99, 255); transform-origin: 265.045px 81.3899px;" id="ellihl5s0qxt" class="animable"></path><g id="elglrku4n3684"><path d="M263.48,76.44a.73.73,0,0,0,.17.27,2.5,2.5,0,0,0,.84.5,6.15,6.15,0,0,1,1.27.77,1.87,1.87,0,0,1,1.23.74,3,3,0,0,1,.57,1.36,7.18,7.18,0,0,1,.67,1.46,2.41,2.41,0,0,0,.73,1.25,6.33,6.33,0,0,0-.26-4.56,4.33,4.33,0,0,0-.51-.82,3.39,3.39,0,0,0-2.64-1.4h-.28A5.11,5.11,0,0,0,263.48,76.44Z" style="fill: rgb(255, 255, 255); opacity: 0.2; transform-origin: 266.373px 79.4px;" class="animable"></path></g><g id="elxoqrpaveeht"><path d="M265.27,76s0,0,0,.06a2.13,2.13,0,0,0,1,1.34,5.1,5.1,0,0,0,2,.79,2.43,2.43,0,0,0,.38,0,4.33,4.33,0,0,0-.51-.82,3.39,3.39,0,0,0-2.64-1.4Z" style="fill: rgb(255, 255, 255); opacity: 0.3; transform-origin: 266.96px 77.0837px;" class="animable"></path></g><g id="elcjzefe4lx3r"><path d="M264.3,84.91a1,1,0,0,0,1.24.32,3.55,3.55,0,0,0,2.19-2.4,4.69,4.69,0,0,0-.24-3.06,1.55,1.55,0,0,1,.07.31,4.73,4.73,0,0,1-.25,2.36,3.33,3.33,0,0,1-2.85,2.47Z" style="opacity: 0.2; transform-origin: 266.091px 82.5481px;" class="animable"></path></g><path d="M264.68,84.6a5.66,5.66,0,0,1-.12.81,6,6,0,0,1-2.37,3.81c-3.08,2.07-8,2.66-12,1.49l-.35-.11a10.22,10.22,0,0,1-2.81-1.38,5.54,5.54,0,0,1-1.35-1.42,6.74,6.74,0,0,1-1.14-3.2,7.16,7.16,0,0,1,.41-3.16v0l.13-.33a7.36,7.36,0,0,1,.81-1.45c.4-.56.87-1,1.24-1.61a2.8,2.8,0,0,0,.57-1.8l6.9.62,6.9-.62a2.8,2.8,0,0,0,.57,1.8c.37.56.84,1,1.24,1.61a7.5,7.5,0,0,1,1,1.86h0A7.35,7.35,0,0,1,264.68,84.6Z" style="fill: rgb(108, 99, 255); transform-origin: 254.61px 83.777px;" id="el1pd2ubt9eb7" class="animable"></path><g id="el1ejvysckx9p"><path d="M256,82c-4,1.7-8.35.48-10.16-.21a6.47,6.47,0,0,1-.84-.38l.06-.16a7.5,7.5,0,0,1,.88-1.62c.4-.56.87-1,1.24-1.61a2.8,2.8,0,0,0,.57-1.8l6.9.62,5.3-.36C260.06,77.19,260.18,80.21,256,82Z" style="fill: rgb(255, 255, 255); opacity: 0.1; transform-origin: 252.493px 79.5413px;" class="animable"></path></g><g id="eliosm56tuqhm"><path d="M264.68,84.6a6.25,6.25,0,0,1-2.49,4.62c-4.06,2.73-11.15,2.88-15.14,0a6.47,6.47,0,0,1-2.49-4.62,5.4,5.4,0,0,1,0-.8c2.67,3.12,7.84,4.13,12,2a9.34,9.34,0,0,0,4.68-5.38,7.52,7.52,0,0,0,.18-4.22l.18,0a2.8,2.8,0,0,0,.57,1.8c.37.56.84,1,1.24,1.61A7.31,7.31,0,0,1,264.68,84.6Z" style="opacity: 0.1; transform-origin: 254.635px 83.7621px;" class="animable"></path></g><g id="eljg3m5uh961"><path d="M264.56,85.41a6,6,0,0,1-2.37,3.81c-3.17,2.13-8.28,2.69-12.33,1.38-.51-.2-1-.43-1.51-.68a8.25,8.25,0,0,1-2.65-2.12,6.74,6.74,0,0,1-1.14-3.2,7.39,7.39,0,0,1,.41-3.18,14.81,14.81,0,0,0,3.78,1.41,17,17,0,0,0,3,.55c2.75.25,8.14.33,12.51-1.88h0A9.51,9.51,0,0,1,264.56,85.41Z" style="opacity: 0.1; transform-origin: 254.586px 86.3609px;" class="animable"></path></g><g id="elbrmpi7jevsi"><path d="M264.68,84.6a6.25,6.25,0,0,1-2.49,4.62c-4.06,2.73-11.15,2.88-15.14,0a6.47,6.47,0,0,1-2.49-4.62c0-.27,1.31,2.68,1.3,2.38,2.95,3.57,8.6,3.76,13,1.76,5.3-2.42,4.39-8,3.26-10.69.37.55.84,1,1.23,1.59A7.31,7.31,0,0,1,264.68,84.6Z" style="opacity: 0.2; transform-origin: 254.637px 84.6871px;" class="animable"></path></g><g id="eloz6p1pbotw"><path d="M261.75,77.43c-8.84,2.51-14.49-1-14.54-1.46l7.41.88,6.9-.62A2.32,2.32,0,0,0,261.75,77.43Z" style="opacity: 0.3; transform-origin: 254.48px 77.1482px;" class="animable"></path></g><path d="M262.29,75.23a2.24,2.24,0,0,1-.29,1.19c-3.69,1.34-11.23,1.26-14.76,0a2.24,2.24,0,0,1-.29-1.19c1.2.8,5.09,1,7.67,1.06S261.09,76,262.29,75.23Z" style="fill: rgb(108, 99, 255); transform-origin: 254.62px 76.3126px;" id="elo21wzpakntp" class="animable"></path><g id="el7h3j6okak5y"><path d="M260,77h-.07A32.37,32.37,0,0,1,249,76.9a12.57,12.57,0,0,1-1.78-.48,2.16,2.16,0,0,1-.3-1.19,11.72,11.72,0,0,0,4.51.91c1.1.09,2.22.13,3.16.15a47.69,47.69,0,0,0,5.09-.35h.06C259.86,76.27,259.93,77,260,77Z" style="fill: rgb(108, 99, 255); opacity: 0.1; transform-origin: 253.459px 76.323px;" class="animable"></path></g><path d="M262.29,75.23c.06.59-3.37,1.08-7.67,1.08s-7.73-.49-7.67-1.08,3.49-1,7.67-1S262.23,74.65,262.29,75.23Z" style="fill: rgb(108, 99, 255); transform-origin: 254.62px 75.27px;" id="eluvcjxzzo5w" class="animable"></path><g id="el937c7w06diq"><path d="M261.53,75.12c0,.44-3,.79-6.81.79s-6.86-.35-6.83-.79,3.08-.78,6.82-.78S261.51,74.69,261.53,75.12Z" style="opacity: 0.2; transform-origin: 254.71px 75.125px;" class="animable"></path></g><g id="elzx5iptnmg3"><path d="M250.8,79.53a1.17,1.17,0,0,1-1.12.75,1.27,1.27,0,0,1-1-.36c-.11-.11-.45-.66-.12-1,0,0,0,0,0,0a1.77,1.77,0,0,1,1.74,0h0C250.81,79.2,250.84,79.36,250.8,79.53Z" style="fill: rgb(255, 255, 255); opacity: 0.3; transform-origin: 249.616px 79.4881px;" class="animable"></path></g><g id="el4mmzayi8qmu"><path d="M249.77,78.75c.56.08.43.81-.16.82a.92.92,0,0,1-.22,0c-.58-.09-.43-.82.16-.83A.82.82,0,0,1,249.77,78.75Z" style="fill: rgb(255, 255, 255); opacity: 0.3; transform-origin: 249.576px 79.1567px;" class="animable"></path></g><g id="ellcl2ip5at1"><path d="M251.38,76.21a3.36,3.36,0,0,1-1.31.56,5.08,5.08,0,0,1-1,.13,12.57,12.57,0,0,1-1.78-.48,2.31,2.31,0,0,1-.29-.86,1.65,1.65,0,0,0,.56.09h.28s0,.07.14.1h0l.26.06h0l.88.15.74.09.64.07Z" style="fill: rgb(255, 255, 255); opacity: 0.2; transform-origin: 249.19px 76.23px;" class="animable"></path></g><g id="elfhefjdo5h2u"><path d="M255.68,76.31a3.43,3.43,0,0,1-2.34,1,5.13,5.13,0,0,1-1.34,0l-.39-.06a6.21,6.21,0,0,1-1.54-.49,1.94,1.94,0,0,1-1-.79c.65.09,1.43.17,2.3.23s2.09.1,3.24.1h1.06Z" style="fill: rgb(255, 255, 255); opacity: 0.2; transform-origin: 252.375px 76.662px;" class="animable"></path></g><g id="eluw8chey2pqq"><path d="M250.46,76.14a.3.3,0,0,1-.3.23s-.42,0-.34-.3Z" style="fill: rgb(255, 255, 255); opacity: 0.3; transform-origin: 250.135px 76.2201px;" class="animable"></path></g><path d="M264.75,104.53H244.29a13,13,0,0,1,6.34-1.65h7.78a13,13,0,0,1,6.34,1.65Z" style="fill: rgb(108, 99, 255); transform-origin: 254.52px 103.705px;" id="ely6yvt3y50h" class="animable"></path><g id="el8kdmzcu0ib5"><path d="M264.75,104.53H244.29a13,13,0,0,1,6.34-1.65h7.78a13,13,0,0,1,6.34,1.65Z" style="fill: rgb(255, 255, 255); opacity: 0.3; transform-origin: 254.52px 103.705px;" class="animable"></path></g><path d="M269.88,185.43c.91,13.66,2.08,30.91,3,44.58a126.61,126.61,0,0,1-42,.94c-.26-5.34,1.59-11.21.25-16.39-2.35-9.13-.13-19.21,5-27.15,8-.63,12.06-1.14,20.06-1.77C259.5,185.38,269.88,185.43,269.88,185.43Z" style="fill: rgb(108, 99, 255); transform-origin: 251.537px 208.846px;" id="eladu4jwa6i6" class="animable"></path><g id="elstlgmn2mwii"><path d="M269.88,185.43c.91,13.66,2.08,30.91,3,44.58a126.61,126.61,0,0,1-42,.94c-.26-5.34,1.59-11.21.25-16.39-2.35-9.13-.13-19.21,5-27.15,8-.63,12.06-1.14,20.06-1.77C259.5,185.38,269.88,185.43,269.88,185.43Z" style="fill: rgb(255, 255, 255); opacity: 0.2; transform-origin: 251.537px 208.846px;" class="animable"></path></g><path d="M252.93,115.68a.29.29,0,0,1-.16,0,.27.27,0,0,1-.13-.35,3.77,3.77,0,0,1,2.57-2.06.23.23,0,0,1,.31.19.28.28,0,0,1-.2.32,3.18,3.18,0,0,0-2.2,1.77A.29.29,0,0,1,252.93,115.68Z" style="fill: rgb(38, 50, 56); transform-origin: 254.071px 114.473px;" id="el0yq225ln69dj" class="animable"></path><path d="M262.45,111.9a.25.25,0,0,1-.12,0,2.83,2.83,0,0,0-2.45.34.27.27,0,0,1-.37-.07.26.26,0,0,1,.07-.36,3.34,3.34,0,0,1,2.91-.41.27.27,0,0,1,.17.33A.29.29,0,0,1,262.45,111.9Z" style="fill: rgb(38, 50, 56); transform-origin: 261.068px 111.76px;" id="el82lokkwuq8i" class="animable"></path><path d="M257,116.61c.16.52.09,1-.26,1.16s-.77-.17-1-.69-.09-1,.26-1.16S256.83,116.1,257,116.61Z" style="fill: rgb(38, 50, 56); transform-origin: 256.354px 116.845px;" id="elhhdmu0na83t" class="animable"></path><path d="M255.92,116l.94-.86S256.67,116.3,255.92,116Z" style="fill: rgb(38, 50, 56); transform-origin: 256.39px 115.595px;" id="elgynq9kqptfo" class="animable"></path><path d="M262.83,115.2c.15.52.08,1-.26,1.16s-.78-.18-1-.69-.07-1,.27-1.16S262.62,114.65,262.83,115.2Z" style="fill: rgb(38, 50, 56); transform-origin: 262.186px 115.433px;" id="elumfb0oglfb8" class="animable"></path><path d="M261.72,114.58l.95-.86S262.47,114.87,261.72,114.58Z" style="fill: rgb(38, 50, 56); transform-origin: 262.195px 114.173px;" id="elawfvfdh51up" class="animable"></path><g id="elllk0dwlhl7"><path d="M249.65,231.67l2.43-10.33a.44.44,0,0,1,.86,0l1.41,10.15Z" style="opacity: 0.1; transform-origin: 252px 226.332px;" class="animable"></path></g></g><g id="freepik--character-1--inject-16" class="animable animator-hidden" style="transform-origin: 145.577px 278.251px;"><polygon points="182 350.36 178.85 363.68 184.86 364.06 188.3 350.76 182 350.36" style="fill: rgb(255, 181, 115); transform-origin: 183.575px 357.21px;" id="el2tvmo2venee" class="animable"></polygon><polygon points="89.63 367.25 102.55 352.21 109.3 356.92 93.67 371.81 89.63 367.25" style="fill: rgb(255, 181, 115); transform-origin: 99.465px 362.01px;" id="elxuezw3vp57" class="animable"></polygon><path d="M195.9,372c-5.56-.54-7.68-.83-10.82-1.25-2.68-.36-3.29-.07-5.42-.32-1.79-.22-1.94-2-1.62-4.06.15-1,.61-3.52.79-5.18l6.79.23c1.41,2.42,7.89,6.47,11.06,7.25S198.12,372.2,195.9,372Z" style="fill: rgb(38, 50, 56); transform-origin: 188.16px 366.6px;" id="el8aalss1euo" class="animable"></path><path d="M94.82,384.89c-3.21-4.65-4.38-6.47-6.11-9.17-1.48-2.31-2.09-2.58-3.29-4.39-1-1.53.24-2.84,2-3.94.86-.56,3-1.85,4.35-2.81L96,370c-.87,2.7.35,10.37,1.83,13.33C99.26,386.07,96.1,386.74,94.82,384.89Z" style="fill: rgb(38, 50, 56); transform-origin: 91.6284px 375.256px;" id="elebbnees7zg6" class="animable"></path><path d="M152.38,252l16.6,3.63S203.3,292,205.71,305.13c1.22,6.62-17.92,50.32-17.92,50.32l-8.18-.22s5-37.41,10.95-46.15l-41.22-28.74S141.9,258.49,152.38,252Z" style="fill: rgb(108, 99, 255); transform-origin: 176.272px 303.725px;" id="el9d97edpi2yk" class="animable"></path><g id="elnofdq8svgy"><path d="M152.38,252l16.6,3.63S203.3,292,205.71,305.13c1.22,6.62-17.92,50.32-17.92,50.32l-8.18-.22s5-37.41,10.95-46.15l-41.22-28.74S141.9,258.49,152.38,252Z" style="fill: rgb(255, 255, 255); opacity: 0.5; transform-origin: 176.272px 303.725px;" class="animable"></path></g><g id="elvd4d3zhlt1j"><polygon points="175.73 298.45 150.07 270.7 149.23 279.56 175.73 298.45" style="opacity: 0.1; transform-origin: 162.48px 284.575px;" class="animable"></polygon></g><path d="M161,253.25s-18.41-6.26-19.13-6.72-10.75,17.87-12.38,30.09-.45,41.2-.45,41.2S119,324,112.18,333.52L96.64,357.64l5.87,6.42,36.4-32.26a23.85,23.85,0,0,0,8.46-13.75Z" style="fill: rgb(108, 99, 255); transform-origin: 128.82px 305.291px;" id="elk8anyrgtbt" class="animable"></path><g id="elu7hews5jod"><path d="M161,253.25s-18.41-6.26-19.13-6.72-10.75,17.87-12.38,30.09-.45,41.2-.45,41.2S119,324,112.18,333.52L96.64,357.64l5.87,6.42,36.4-32.26a23.85,23.85,0,0,0,8.46-13.75Z" style="fill: rgb(255, 255, 255); opacity: 0.5; transform-origin: 128.82px 305.291px;" class="animable"></path></g><path d="M164.27,214c.94.47,1.76.87,2.65,1.26s1.73.75,2.64,1.13c1.76.7,3.56,1.35,5.43,1.95a44.43,44.43,0,0,0,11.87,2.31,19.79,19.79,0,0,0,3.44-.18,12.72,12.72,0,0,0,3.72-1.08,14.11,14.11,0,0,0,5.55-4.73,20,20,0,0,0,2.76-5.83,25.24,25.24,0,0,0,.69-3,10.74,10.74,0,0,0,.18-1.51c0-.52.07-1,.1-1.58l-4.42-.73-.49,1.1-.53,1.13c-.37.76-.76,1.48-1.19,2.2a16.92,16.92,0,0,1-2.75,3.6,7.43,7.43,0,0,1-3,1.87,7.07,7.07,0,0,1-1.57.27,15.25,15.25,0,0,1-2-.06,29.23,29.23,0,0,1-4.64-.89c-1.6-.41-3.21-.93-4.83-1.5s-3.23-1.21-4.85-1.85l-2.41-1c-.78-.34-1.63-.7-2.3-1Z" style="fill: rgb(255, 181, 115); transform-origin: 183.785px 211.336px;" id="elvmhmwp4l0je" class="animable"></path><path d="M154.07,211.12c-1.58-6.75,4-10.59,13.1-8a84.34,84.34,0,0,1,14.2,5.18L176,223.53C167.13,221.55,155.69,218.06,154.07,211.12Z" style="fill: rgb(108, 99, 255); transform-origin: 167.587px 212.918px;" id="elxop608pksqf" class="animable"></path><g id="elz00n73r3o1f"><path d="M154.07,211.12c-1.58-6.75,4-10.59,13.1-8a84.34,84.34,0,0,1,14.2,5.18L176,223.53C167.13,221.55,155.69,218.06,154.07,211.12Z" style="opacity: 0.1; transform-origin: 167.587px 212.918px;" class="animable"></path></g><path d="M197.75,200.3l.58-3.29,5.76,3.28s-.75,5.66-3.53,5.24l-1.23-1.17A5.37,5.37,0,0,1,197.75,200.3Z" style="fill: rgb(255, 181, 115); transform-origin: 200.917px 201.281px;" id="el72o8ox8fwde" class="animable"></path><polygon points="200.37 193.94 206.09 195.21 204.07 200.31 198.32 197.03 200.37 193.94" style="fill: rgb(255, 181, 115); transform-origin: 202.205px 197.125px;" id="elg8gj9koq7a" class="animable"></polygon><path d="M155.3,201.17l-7.85-.76-9.68,1.29a6.74,6.74,0,0,0-5.82,5.79c-.82,5.93,0,41.27,1.74,52l5.78.6c9.51.71,21.68-.86,30.57-4.33,0,0,.49-38.85.42-46.37a6.74,6.74,0,0,0-5-6.46Z" style="fill: rgb(108, 99, 255); transform-origin: 151.049px 230.334px;" id="elxlwx3q97fd" class="animable"></path><path d="M142,201.72a5.68,5.68,0,0,0,1.18,3.95,16.76,16.76,0,0,0,3,3c1.37,1.15,3,2.37,4.76,2.06s2.52-1.16,3.1-3.13c1.5,2.19,1.61,3.31,3.16,3.39a3.44,3.44,0,0,0,2.5-1.47,5.62,5.62,0,0,0,1.85-3.84c.24-2.87-2.19-5.42-4.94-6.31a34.12,34.12,0,0,0-8.55-1.3C145.53,197.85,142.38,198.77,142,201.72Z" style="fill: rgb(108, 99, 255); transform-origin: 151.774px 204.514px;" id="el501eilj0wlj" class="animable"></path><g id="elp7dygb5edk"><path d="M142,201.72a5.68,5.68,0,0,0,1.18,3.95,16.76,16.76,0,0,0,3,3c1.37,1.15,3,2.37,4.76,2.06s2.52-1.16,3.1-3.13c1.5,2.19,1.61,3.31,3.16,3.39a3.44,3.44,0,0,0,2.5-1.47,5.62,5.62,0,0,0,1.85-3.84c.24-2.87-2.19-5.42-4.94-6.31a34.12,34.12,0,0,0-8.55-1.3C145.53,197.85,142.38,198.77,142,201.72Z" style="fill: rgb(255, 255, 255); opacity: 0.6; transform-origin: 151.774px 204.514px;" class="animable"></path></g><path d="M148.21,187.71l3.71,3.91,5,5.33a6.15,6.15,0,0,0-.89,2,3.38,3.38,0,0,0,1.51,4.18c.75.31,1.29,4.12-3.54,3.93a10,10,0,0,1-7.41-3c-.94-1.14-1.2-1.77-.35-3.1C148.72,197.21,148.69,191.91,148.21,187.71Z" style="fill: rgb(255, 181, 115); transform-origin: 151.877px 197.388px;" id="elra4kgtpqtf" class="animable"></path><g id="elz3zmikytj2"><path d="M155.74,195.63l-3.2-3.87c0,.12-.07.25-.1.39a11.23,11.23,0,0,0-.23,1.73c-.09,2,1.88,4.45,3.75,5.46l.12-.4a7.75,7.75,0,0,1,.81-1.92l.09-.09Z" style="opacity: 0.2; isolation: isolate; transform-origin: 154.594px 195.55px;" class="animable"></path></g><path d="M159,186.45c2.85-5.71,2.19-8.92,5-12,1.5-.69,4.17,2.06,2.47,6.8S159,186.45,159,186.45Z" style="fill: rgb(38, 50, 56); transform-origin: 163.008px 180.397px;" id="el23q2xho8pzv" class="animable"></path><path d="M148.21,180.2c-.26,6.59-.69,10.44,2.29,14,6.48,6.17,12.9,3.09,15.1-3.33,2-5.78,2-15.59-4.17-18.7a9.14,9.14,0,0,0-13.22,8Z" style="fill: rgb(255, 181, 115); transform-origin: 157.407px 184.379px;" id="elc7u690clkrc" class="animable"></path><path d="M147.5,186.06l2.82.55,1.16-4.25,2.91-1.7,1-3.72a2.73,2.73,0,0,0-2.25-3.38c-1.84-.27-4.06-.59-5.27-.74-.81-.09-3.61,2.14-4,3.06a7.58,7.58,0,0,0,1.34,7.86A17.25,17.25,0,0,0,147.5,186.06Z" style="fill: rgb(38, 50, 56); transform-origin: 149.395px 179.714px;" id="elrd35unnnlfj" class="animable"></path><path d="M145,185a6,6,0,0,0,2.05,3.75c1.46,1.22,3.11-.25,3.23-2.12.09-1.68-.85-4.07-2.57-4.56S144.8,183.16,145,185Z" style="fill: rgb(255, 181, 115); transform-origin: 147.632px 185.588px;" id="elslqg2ebt8j" class="animable"></path><path d="M159.13,183.66c-.07.55.15,1,.51,1.1s.66-.32.77-.86-.14-1-.5-1.1S159.21,183.12,159.13,183.66Z" style="fill: rgb(38, 50, 56); transform-origin: 159.777px 183.78px;" id="elle6i3x1f93m" class="animable"></path><path d="M161.58,192.07c-.07.54.15,1,.5,1.09s.67-.32.78-.86-.14-1-.5-1.1S161.66,191.52,161.58,192.07Z" style="fill: rgb(38, 50, 56); transform-origin: 162.227px 192.179px;" id="elkbzqxely3jd" class="animable"></path><path d="M164.55,184.45c-.08.55.15,1,.5,1.1s.7-.33.78-.86-.15-1-.5-1.1S164.63,183.91,164.55,184.45Z" style="fill: rgb(38, 50, 56); transform-origin: 165.19px 184.57px;" id="elbu8mpvvdoxl" class="animable"></path><path d="M162.7,184.77a17.83,17.83,0,0,0,2.49,3.92,2.64,2.64,0,0,1-2.2.49Z" style="fill: rgb(255, 86, 82); transform-origin: 163.945px 187.007px;" id="elezp28413igs" class="animable"></path><path d="M157.4,182.15a.29.29,0,0,1-.14-.08.33.33,0,0,1,0-.46,3.11,3.11,0,0,1,2.8-.81.33.33,0,0,1,.23.39h0a.34.34,0,0,1-.4.23,2.45,2.45,0,0,0-2.19.65A.31.31,0,0,1,157.4,182.15Z" style="fill: rgb(38, 50, 56); transform-origin: 158.732px 181.447px;" id="ely53us3e045" class="animable"></path><path d="M164.7,182.13a.32.32,0,0,1,0-.17.32.32,0,0,1,.39-.24,3.09,3.09,0,0,1,2.25,1.84.32.32,0,0,1-.19.41.31.31,0,0,1-.41-.19,2.48,2.48,0,0,0-1.79-1.43A.34.34,0,0,1,164.7,182.13Z" style="fill: rgb(38, 50, 56); transform-origin: 166.024px 182.851px;" id="eliv7qngk9zt9" class="animable"></path><path d="M122.46,200.28c-5.4-1.65-8.71-.66-9.77-4.05s-2.25-22.08-1.42-22.3c-1.54.48-2.88,1-4.41,1.48q-.84,7.71-1.85,15.41c-.49,3.75-1.09,9.83.46,13.28,1.4,3.11,10.63,5.05,17.31,6.33C124.74,208.47,122.46,200.28,122.46,200.28Z" style="fill: rgb(255, 181, 115); transform-origin: 114.025px 192.18px;" id="el9mwfb8w60q" class="animable"></path><path d="M139.47,210.57c4.67-5.15,1-9.75-8.16-11.92a83.69,83.69,0,0,0-14.92-2.37l-2.12,14.46C123,213.31,134.69,215.83,139.47,210.57Z" style="fill: rgb(108, 99, 255); transform-origin: 127.884px 204.967px;" id="el7umlx0p02ew" class="animable"></path><path d="M112.79,178.39l1.62-2.71-7.29-1.62s-3.17,6-.34,7.14l1.79-.41C110.12,180.46,112,179.9,112.79,178.39Z" style="fill: rgb(255, 181, 115); transform-origin: 110.007px 177.63px;" id="el1rcg3e10ibij" class="animable"></path><polygon points="113.57 170.76 109.28 170.57 107.13 174.06 114.42 175.68 113.57 170.76" style="fill: rgb(255, 181, 115); transform-origin: 110.775px 173.125px;" id="elmgrrqdk9bls" class="animable"></polygon><path d="M178.56,352.73c.23-.09,12.2.73,12.2.73l-1,3.66-12.08-.21Z" style="fill: rgb(108, 99, 255); transform-origin: 184.22px 354.922px;" id="elxpe7ju8d17o" class="animable"></path><path d="M96.53,355.91c.23.09,8.42,8.86,8.42,8.86l-3.27,2L93,358.33Z" style="fill: rgb(108, 99, 255); transform-origin: 98.975px 361.34px;" id="elk75pialjxe" class="animable"></path></g><defs>     <filter id="active" height="200%">         <feMorphology in="SourceAlpha" result="DILATED" operator="dilate" radius="2"></feMorphology>                <feFlood flood-color="#32DFEC" flood-opacity="1" result="PINK"></feFlood>        <feComposite in="PINK" in2="DILATED" operator="in" result="OUTLINE"></feComposite>        <feMerge>            <feMergeNode in="OUTLINE"></feMergeNode>            <feMergeNode in="SourceGraphic"></feMergeNode>        </feMerge>    </filter>    <filter id="hover" height="200%">        <feMorphology in="SourceAlpha" result="DILATED" operator="dilate" radius="2"></feMorphology>                <feFlood flood-color="#ff0000" flood-opacity="0.5" result="PINK"></feFlood>        <feComposite in="PINK" in2="DILATED" operator="in" result="OUTLINE"></feComposite>        <feMerge>            <feMergeNode in="OUTLINE"></feMergeNode>            <feMergeNode in="SourceGraphic"></feMergeNode>        </feMerge>            <feColorMatrix type="matrix" values="0   0   0   0   0                0   1   0   0   0                0   0   0   0   0                0   0   0   1   0 "></feColorMatrix>    </filter></defs></svg>